<?xml version="1.0" encoding="iso-8859-1"?>
<!-- Generator: Adobe Illustrator 18.0.0, SVG Export Plug-In . SVG Version: 6.00 Build 0)  -->
<!DOCTYPE svg PUBLIC "-//W3C//DTD SVG 1.1//EN" "http://www.w3.org/Graphics/SVG/1.1/DTD/svg11.dtd">
<svg version="1.1" id="Capa_1" xmlns="http://www.w3.org/2000/svg" xmlns:xlink="http://www.w3.org/1999/xlink" x="0px" y="0px"
	 viewBox="0 0 406.903 406.903" style="enable-background:new 0 0 406.903 406.903;" xml:space="preserve">
<path d="M406.464,126.505l-10.625-74.086c-2.982-20.79-21.06-36.468-42.052-36.468c-2.013,0-4.046,0.145-6.051,0.432L273.65,27.008
	c-11.237,1.611-21.175,7.503-27.981,16.589c-6.806,9.085-9.667,20.277-8.055,31.514c2.224,15.509,12.846,28.172,26.812,33.606
	l-3.514,4.779l-8.542-3.752c-23.15-41.025-67.153-68.793-117.523-68.793C60.493,40.952,0,101.445,0,175.796
	c0,74.358,60.493,134.846,134.847,134.846c26.587,0,51.401-7.736,72.313-21.073l92.796,92.798
	c5.725,5.722,13.227,8.585,20.728,8.585c7.503,0,15.006-2.863,20.729-8.585c11.448-11.448,11.448-30.01,0-41.457l-92.796-92.799
	c7.841-12.293,13.727-25.942,17.263-40.501c2.974,0.653,6.015,0.99,9.102,0.99c13.471,0,26.275-6.478,34.251-17.328l22.9-31.152
	c7.87,9.164,19.521,14.923,32.238,14.921c2.021,0,4.062-0.146,6.052-0.433c11.239-1.61,21.177-7.502,27.984-16.589
	C405.215,148.934,408.076,137.742,406.464,126.505z M134.847,263.74c-48.492,0-87.944-39.449-87.944-87.943
	c0-48.493,39.452-87.943,87.944-87.943c5.26,0,10.413,0.466,15.422,1.355c-1.883,1.46-3.657,3.075-5.285,4.853l-57.211,62.465
	c-15.826,17.281-14.643,44.218,2.638,60.047c7.856,7.195,18.048,11.157,28.7,11.157c11.892,0,23.316-5.027,31.346-13.795
	l36.65-40.016l34.673,15.229C215.328,231.329,178.801,263.74,134.847,263.74z M366.599,149.861c-0.842,0.121-1.68,0.18-2.506,0.18
	c-8.565,0.001-16.049-6.293-17.301-15.018l-4.492-31.321l-53.488,72.763c-4.853,6.602-13.638,8.951-21.138,5.658l-87.189-38.294
	l-48.744,53.222c-3.452,3.768-8.173,5.68-12.91,5.68c-4.222,0-8.456-1.518-11.815-4.594c-7.127-6.528-7.613-17.598-1.085-24.726
	l57.21-62.465c5.062-5.526,13.081-7.216,19.942-4.203l85.832,37.696l46.163-62.799l-33.19,4.761
	c-9.565,1.372-18.435-5.271-19.807-14.839c-1.372-9.566,5.271-18.435,14.838-19.807l74.087-10.625
	c9.563-1.369,18.435,5.271,19.807,14.838l10.626,74.086C382.81,139.621,376.167,148.49,366.599,149.861z"/>
<g>
</g>
<g>
</g>
<g>
</g>
<g>
</g>
<g>
</g>
<g>
</g>
<g>
</g>
<g>
</g>
<g>
</g>
<g>
</g>
<g>
</g>
<g>
</g>
<g>
</g>
<g>
</g>
<g>
</g>
</svg>
